<?xml version="1.0" encoding="iso-8859-1"?>
<!-- Generator: Adobe Illustrator 19.1.1, SVG Export Plug-In . SVG Version: 6.00 Build 0)  -->
<svg version="1.1"  xmlns="http://www.w3.org/2000/svg" xmlns:xlink="http://www.w3.org/1999/xlink" x="0px" y="0px"
	 viewBox="0 0 48 48" style="enable-background:new 0 0 48 48;" xml:space="preserve">
<path style="fill:#37474F;" d="M6,10c0-2.209,1.791-4,4-4h28c2.209,0,4,1.791,4,4v28c0,2.208-1.791,4-4,4H10c-2.209,0-4-1.792-4-4
	V10z"/>
<rect x="17" y="13" style="fill:#8BC34A;" width="2" height="2"/>
<rect x="17" y="16" style="fill:#64DD17;" width="2" height="2"/>
<rect x="17" y="20" style="fill:#64DD17;" width="2" height="2"/>
<rect x="17" y="24" style="fill:#76FF03;" width="2" height="2"/>
<rect x="17" y="29" style="fill:#B2FF59;" width="2" height="2"/>
<rect x="17" y="35" style="fill:#CCFF90;" width="2" height="2"/>
<rect x="17" y="10" style="fill:#8BC34A;" width="2" height="2"/>
<rect x="17" y="8" style="fill:#8BC34A;" width="2" height="1"/>
<rect x="25" y="8" style="fill:#8BC34A;" width="2" height="1"/>
<rect x="9" y="15" style="fill:#8BC34A;" width="2" height="2"/>
<rect x="9" y="18" style="fill:#64DD17;" width="2" height="2"/>
<rect x="9" y="22" style="fill:#64DD17;" width="2" height="2"/>
<rect x="9" y="26" style="fill:#76FF03;" width="2" height="2"/>
<rect x="9" y="31" style="fill:#B2FF59;" width="2" height="2"/>
<rect x="9" y="37" style="fill:#CCFF90;" width="2" height="2"/>
<rect x="9" y="12" style="fill:#8BC34A;" width="2" height="2"/>
<rect x="13" y="8" style="fill:#8BC34A;" width="2" height="2"/>
<rect x="9" y="8" style="fill:#8BC34A;" width="2" height="3"/>
<rect x="13" y="11" style="fill:#64DD17;" width="2" height="2"/>
<rect x="13" y="15" style="fill:#76FF03;" width="2" height="2"/>
<rect x="13" y="19" style="fill:#B2FF59;" width="2" height="2"/>
<rect x="13" y="25" style="fill:#CCFF90;" width="2" height="2"/>
<rect x="21" y="11" style="fill:#8BC34A;" width="2" height="2"/>
<rect x="21" y="14" style="fill:#64DD17;" width="2" height="2"/>
<rect x="21" y="18" style="fill:#64DD17;" width="2" height="2"/>
<rect x="21" y="22" style="fill:#76FF03;" width="2" height="2"/>
<rect x="21" y="27" style="fill:#B2FF59;" width="2" height="2"/>
<rect x="21" y="33" style="fill:#CCFF90;" width="2" height="2"/>
<rect x="21" y="8" style="fill:#8BC34A;" width="2" height="2"/>
<rect x="25" y="16" style="fill:#8BC34A;" width="2" height="2"/>
<rect x="25" y="19" style="fill:#64DD17;" width="2" height="2"/>
<rect x="25" y="23" style="fill:#64DD17;" width="2" height="2"/>
<rect x="25" y="27" style="fill:#76FF03;" width="2" height="2"/>
<rect x="25" y="32" style="fill:#B2FF59;" width="2" height="2"/>
<rect x="25" y="38" style="fill:#CCFF90;" width="2" height="2"/>
<rect x="25" y="13" style="fill:#8BC34A;" width="2" height="2"/>
<rect x="25" y="10" style="fill:#8BC34A;" width="2" height="2"/>
<rect x="37" y="15" style="fill:#8BC34A;" width="2" height="2"/>
<rect x="37" y="18" style="fill:#64DD17;" width="2" height="2"/>
<rect x="37" y="22" style="fill:#64DD17;" width="2" height="2"/>
<rect x="37" y="26" style="fill:#76FF03;" width="2" height="2"/>
<rect x="37" y="31" style="fill:#B2FF59;" width="2" height="2"/>
<rect x="37" y="37" style="fill:#CCFF90;" width="2" height="2"/>
<rect x="37" y="12" style="fill:#8BC34A;" width="2" height="2"/>
<rect x="37" y="8" style="fill:#8BC34A;" width="2" height="3"/>
<rect x="33" y="12" style="fill:#8BC34A;" width="2" height="2"/>
<rect x="33" y="15" style="fill:#64DD17;" width="2" height="2"/>
<rect x="33" y="19" style="fill:#64DD17;" width="2" height="2"/>
<rect x="33" y="23" style="fill:#76FF03;" width="2" height="2"/>
<rect x="33" y="28" style="fill:#B2FF59;" width="2" height="2"/>
<rect x="33" y="34" style="fill:#CCFF90;" width="2" height="2"/>
<rect x="33" y="8" style="fill:#8BC34A;" width="2" height="3"/>
<rect x="29" y="11" style="fill:#76FF03;" width="2" height="2"/>
<rect x="29" y="8" style="fill:#8BC34A;" width="2" height="2"/>
<rect x="29" y="14" style="fill:#B2FF59;" width="2" height="2"/>
<rect x="29" y="19" style="fill:#CCFF90;" width="2" height="2"/>
</svg>
